<?xml version="1.0" standalone="no"?>
<!DOCTYPE svg PUBLIC "-//W3C//DTD SVG 20010904//EN"
 "http://www.w3.org/TR/2001/REC-SVG-20010904/DTD/svg10.dtd">
<svg version="1.0" xmlns="http://www.w3.org/2000/svg"
 width="700.000000pt" height="700.000000pt" viewBox="0 0 700.000000 700.000000"
 preserveAspectRatio="xMidYMid meet">
<metadata>
Created by potrace 1.14, written by Peter Selinger 2001-2017
</metadata>
<g transform="translate(0.000000,700.000000) scale(0.100000,-0.100000)"
fill="#000000" stroke="none">
<path d="M0 4746 l0 -2253 383 -1 c210 0 390 -1 399 -1 17 -1 18 -30 20 -413
l3 -413 394 -1 c351 -1 395 -3 400 -17 3 -9 6 -196 5 -417 0 -280 3 -400 10
-399 6 1 187 1 401 0 l390 -1 0 -415 0 -415 2297 0 2298 0 0 2253 0 2254 -397
0 -398 0 -3 416 -2 417 -400 0 c-313 0 -400 3 -401 13 0 6 -1 193 -1 415 l-1
402 -397 0 c-309 0 -399 3 -402 13 -2 6 -4 193 -4 415 l1 402 -2297 0 -2298 0
0 -2254z m4517 1802 l2 -378 -1859 0 -1860 0 0 -1800 0 -1800 -67 0 c-376 -2
-648 2 -653 9 -4 7 -5 4345 -1 4346 0 0 999 0 2219 0 l2217 0 2 -377z m2 -830
l0 -378 -1458 0 -1457 0 0 -1385 1 -1385 -110 0 c-456 -1 -608 0 -612 4 -7 7
-7 3501 0 3512 3 5 792 9 1821 9 l1815 0 0 -377z m801 0 l0 -378 -363 0 -362
0 1 378 c1 207 2 377 3 377 0 0 163 0 361 0 l360 0 0 -377z m-808 -457 c9 -1
9 -751 0 -752 -4 0 -479 -1 -1057 -2 l-1050 -2 0 -962 c0 -529 -3 -964 -6
-967 -4 -5 -285 -7 -626 -6 l-93 0 0 1348 0 1347 1412 -1 c777 -1 1416 -2
1420 -3z m806 -374 c2 -354 1 -377 -15 -378 -23 -1 -684 -1 -698 0 -7 1 -10
129 -9 379 1 207 2 377 3 377 0 0 162 0 359 0 l357 0 3 -378z m797 371 c6 -5
11 -690 6 -743 -1 -6 -128 -10 -361 -10 -313 0 -360 2 -361 15 -4 67 -1 729 4
736 6 10 702 12 712 2z m-1623 -828 l27 0 0 -930 0 -930 -445 0 c-244 0 -644
0 -889 0 -245 0 -503 0 -575 0 l-129 0 0 930 0 929 87 3 c65 2 1752 1 1924 -2z
m821 0 c4 0 7 -605 7 -1345 0 -740 -3 -1345 -7 -1346 -10 -1 -2770 -1 -2805 0
l-27 1 0 375 0 375 27 1 c15 0 482 1 1037 0 556 0 1019 2 1030 4 20 4 20 11
20 969 l0 965 50 3 c37 2 622 1 668 -2z m805 -4 c11 -11 5 -3508 -6 -3514 -7
-5 -3560 -8 -3619 -3 -9 1 -12 96 -12 376 l-1 375 33 1 c17 0 673 1 1457 2
l1425 2 2 1370 c1 754 2 1375 2 1382 1 6 18 13 39 15 61 5 674 -1 680 -6z
m796 1 c8 -3 11 -565 11 -2178 l0 -2174 -2220 0 -2220 0 -2 377 -3 378 1860 0
1860 0 0 1799 0 1800 28 3 c40 5 672 0 686 -5z m-5318 -1939 c10 -7 11 -734 1
-745 -9 -8 -705 -8 -714 0 -4 5 -8 716 -4 747 1 7 705 5 717 -2z m809 -367 c0
-213 -4 -375 -9 -378 -5 -4 -167 -6 -360 -6 l-351 0 -3 373 c-1 219 2 376 7
379 5 3 168 6 363 5 l353 -1 0 -372z m1 -827 c0 -203 -3 -373 -7 -379 -5 -6
-136 -10 -361 -9 l-353 0 -3 376 -2 377 22 3 c13 2 176 2 363 2 l340 -2 1
-368z"/>
</g>
</svg>
